<mxfile host="app.diagrams.net" agent="Mozilla/5.0 (Windows NT 10.0; Win64; x64) AppleWebKit/537.36 (KHTML, like Gecko) Chrome/127.0.0.0 Safari/537.36" version="24.7.6">
  <diagram name="第 1 页" id="d2mPHhyUvuULvc4ICSST">
    <mxGraphModel dx="2117" dy="522" grid="1" gridSize="10" guides="1" tooltips="1" connect="1" arrows="1" fold="1" page="1" pageScale="1" pageWidth="827" pageHeight="1169" math="0" shadow="0">
      <root>
        <mxCell id="0" />
        <mxCell id="1" parent="0" />
        <mxCell id="b_20STS_lAYRM_HVw5Nr-14" value="" style="edgeStyle=orthogonalEdgeStyle;rounded=0;orthogonalLoop=1;jettySize=auto;html=1;" parent="1" source="b_20STS_lAYRM_HVw5Nr-1" target="b_20STS_lAYRM_HVw5Nr-13" edge="1">
          <mxGeometry relative="1" as="geometry" />
        </mxCell>
        <mxCell id="b_20STS_lAYRM_HVw5Nr-1" value="&lt;font face=&quot;Lucida Console&quot; style=&quot;font-size: 18px;&quot;&gt;RockServer&lt;/font&gt;" style="rounded=0;whiteSpace=wrap;html=1;" parent="1" vertex="1">
          <mxGeometry x="1160" width="240" height="80" as="geometry" />
        </mxCell>
        <mxCell id="b_20STS_lAYRM_HVw5Nr-8" value="" style="edgeStyle=orthogonalEdgeStyle;rounded=0;orthogonalLoop=1;jettySize=auto;html=1;" parent="1" source="b_20STS_lAYRM_HVw5Nr-2" target="b_20STS_lAYRM_HVw5Nr-7" edge="1">
          <mxGeometry relative="1" as="geometry" />
        </mxCell>
        <mxCell id="b_20STS_lAYRM_HVw5Nr-2" value="&lt;pre style=&quot;color: rgb(59, 59, 59); background-color: rgb(255, 255, 255); font-family: Consolas, &amp;quot;Courier New&amp;quot;, monospace; line-height: 19px; white-space: pre;&quot;&gt;&lt;span style=&quot;color: rgb(38, 127, 153);&quot;&gt;&lt;font style=&quot;font-size: 18px;&quot;&gt;AsyncSocketStream&lt;/font&gt;&lt;/span&gt;&lt;/pre&gt;" style="rounded=0;whiteSpace=wrap;html=1;" parent="1" vertex="1">
          <mxGeometry x="320" width="280" height="80" as="geometry" />
        </mxCell>
        <mxCell id="b_20STS_lAYRM_HVw5Nr-4" value="" style="edgeStyle=orthogonalEdgeStyle;rounded=0;orthogonalLoop=1;jettySize=auto;html=1;" parent="1" source="b_20STS_lAYRM_HVw5Nr-3" target="b_20STS_lAYRM_HVw5Nr-2" edge="1">
          <mxGeometry relative="1" as="geometry" />
        </mxCell>
        <mxCell id="b_20STS_lAYRM_HVw5Nr-3" value="&lt;font face=&quot;Lucida Console&quot; style=&quot;font-size: 18px;&quot;&gt;SocketStream&lt;/font&gt;" style="rounded=0;whiteSpace=wrap;html=1;" parent="1" vertex="1">
          <mxGeometry x="40" width="200" height="80" as="geometry" />
        </mxCell>
        <mxCell id="b_20STS_lAYRM_HVw5Nr-11" value="" style="edgeStyle=orthogonalEdgeStyle;rounded=0;orthogonalLoop=1;jettySize=auto;html=1;" parent="1" source="b_20STS_lAYRM_HVw5Nr-7" target="b_20STS_lAYRM_HVw5Nr-10" edge="1">
          <mxGeometry relative="1" as="geometry" />
        </mxCell>
        <mxCell id="b_20STS_lAYRM_HVw5Nr-7" value="&lt;font face=&quot;Lucida Console&quot; style=&quot;font-size: 18px;&quot;&gt;RockStream&lt;/font&gt;" style="rounded=0;whiteSpace=wrap;html=1;" parent="1" vertex="1">
          <mxGeometry x="680" width="200" height="80" as="geometry" />
        </mxCell>
        <mxCell id="b_20STS_lAYRM_HVw5Nr-12" value="" style="edgeStyle=orthogonalEdgeStyle;rounded=0;orthogonalLoop=1;jettySize=auto;html=1;" parent="1" source="b_20STS_lAYRM_HVw5Nr-10" target="b_20STS_lAYRM_HVw5Nr-1" edge="1">
          <mxGeometry relative="1" as="geometry" />
        </mxCell>
        <mxCell id="b_20STS_lAYRM_HVw5Nr-10" value="&lt;font face=&quot;Lucida Console&quot; style=&quot;font-size: 18px;&quot;&gt;RockSession&lt;/font&gt;" style="rounded=0;whiteSpace=wrap;html=1;" parent="1" vertex="1">
          <mxGeometry x="920" width="200" height="80" as="geometry" />
        </mxCell>
        <mxCell id="b_20STS_lAYRM_HVw5Nr-18" value="" style="edgeStyle=orthogonalEdgeStyle;rounded=0;orthogonalLoop=1;jettySize=auto;html=1;" parent="1" source="b_20STS_lAYRM_HVw5Nr-13" target="b_20STS_lAYRM_HVw5Nr-17" edge="1">
          <mxGeometry relative="1" as="geometry" />
        </mxCell>
        <mxCell id="b_20STS_lAYRM_HVw5Nr-13" value="&lt;font face=&quot;Lucida Console&quot;&gt;&lt;span style=&quot;font-size: 18px;&quot;&gt;handleClient&lt;/span&gt;&lt;/font&gt;" style="rounded=0;whiteSpace=wrap;html=1;" parent="1" vertex="1">
          <mxGeometry x="1160" y="160" width="240" height="80" as="geometry" />
        </mxCell>
        <mxCell id="b_20STS_lAYRM_HVw5Nr-22" value="" style="edgeStyle=orthogonalEdgeStyle;rounded=0;orthogonalLoop=1;jettySize=auto;html=1;" parent="1" source="b_20STS_lAYRM_HVw5Nr-17" target="b_20STS_lAYRM_HVw5Nr-19" edge="1">
          <mxGeometry relative="1" as="geometry" />
        </mxCell>
        <mxCell id="b_20STS_lAYRM_HVw5Nr-17" value="&lt;font face=&quot;Lucida Console&quot;&gt;&lt;span style=&quot;font-size: 18px;&quot;&gt;set connect disconnect requset notify for each rockModule&lt;/span&gt;&lt;/font&gt;" style="rounded=0;whiteSpace=wrap;html=1;" parent="1" vertex="1">
          <mxGeometry x="880" y="140" width="240" height="120" as="geometry" />
        </mxCell>
        <mxCell id="b_20STS_lAYRM_HVw5Nr-24" value="" style="edgeStyle=orthogonalEdgeStyle;rounded=0;orthogonalLoop=1;jettySize=auto;html=1;" parent="1" source="b_20STS_lAYRM_HVw5Nr-19" target="b_20STS_lAYRM_HVw5Nr-23" edge="1">
          <mxGeometry relative="1" as="geometry" />
        </mxCell>
        <mxCell id="b_20STS_lAYRM_HVw5Nr-19" value="&lt;font face=&quot;Lucida Console&quot;&gt;&lt;span style=&quot;font-size: 18px;&quot;&gt;start&lt;/span&gt;&lt;/font&gt;" style="rounded=0;whiteSpace=wrap;html=1;" parent="1" vertex="1">
          <mxGeometry x="600" y="160" width="240" height="80" as="geometry" />
        </mxCell>
        <mxCell id="b_20STS_lAYRM_HVw5Nr-26" value="" style="edgeStyle=orthogonalEdgeStyle;rounded=0;orthogonalLoop=1;jettySize=auto;html=1;" parent="1" source="b_20STS_lAYRM_HVw5Nr-23" target="b_20STS_lAYRM_HVw5Nr-25" edge="1">
          <mxGeometry relative="1" as="geometry" />
        </mxCell>
        <mxCell id="b_20STS_lAYRM_HVw5Nr-23" value="&lt;font face=&quot;Lucida Console&quot;&gt;&lt;span style=&quot;font-size: 18px;&quot;&gt;startRead&lt;/span&gt;&lt;/font&gt;&lt;div&gt;&lt;span style=&quot;font-size: 18px; font-family: &amp;quot;Lucida Console&amp;quot;; background-color: initial;&quot;&gt;startWrite&lt;/span&gt;&lt;/div&gt;" style="rounded=0;whiteSpace=wrap;html=1;" parent="1" vertex="1">
          <mxGeometry x="600" y="320" width="240" height="80" as="geometry" />
        </mxCell>
        <mxCell id="b_20STS_lAYRM_HVw5Nr-31" value="" style="edgeStyle=orthogonalEdgeStyle;rounded=0;orthogonalLoop=1;jettySize=auto;html=1;" parent="1" source="b_20STS_lAYRM_HVw5Nr-25" target="b_20STS_lAYRM_HVw5Nr-30" edge="1">
          <mxGeometry relative="1" as="geometry" />
        </mxCell>
        <mxCell id="b_20STS_lAYRM_HVw5Nr-25" value="&lt;font face=&quot;Lucida Console&quot;&gt;&lt;span style=&quot;font-size: 18px;&quot;&gt;doRead&lt;/span&gt;&lt;/font&gt;" style="rounded=0;whiteSpace=wrap;html=1;" parent="1" vertex="1">
          <mxGeometry x="880" y="320" width="240" height="80" as="geometry" />
        </mxCell>
        <mxCell id="b_20STS_lAYRM_HVw5Nr-27" value="&lt;font face=&quot;Lucida Console&quot;&gt;&lt;span style=&quot;font-size: 18px;&quot;&gt;read and handle msg&lt;/span&gt;&lt;/font&gt;&lt;div&gt;&lt;font face=&quot;Lucida Console&quot;&gt;&lt;span style=&quot;font-size: 18px;&quot;&gt;request notify&lt;/span&gt;&lt;/font&gt;&lt;/div&gt;" style="rounded=0;whiteSpace=wrap;html=1;" parent="1" vertex="1">
          <mxGeometry x="1190" y="475" width="270" height="90" as="geometry" />
        </mxCell>
        <mxCell id="b_20STS_lAYRM_HVw5Nr-32" value="" style="edgeStyle=orthogonalEdgeStyle;rounded=0;orthogonalLoop=1;jettySize=auto;html=1;" parent="1" source="b_20STS_lAYRM_HVw5Nr-30" target="b_20STS_lAYRM_HVw5Nr-27" edge="1">
          <mxGeometry relative="1" as="geometry" />
        </mxCell>
        <mxCell id="b_20STS_lAYRM_HVw5Nr-34" value="" style="edgeStyle=orthogonalEdgeStyle;rounded=0;orthogonalLoop=1;jettySize=auto;html=1;" parent="1" source="b_20STS_lAYRM_HVw5Nr-30" target="b_20STS_lAYRM_HVw5Nr-33" edge="1">
          <mxGeometry relative="1" as="geometry" />
        </mxCell>
        <mxCell id="b_20STS_lAYRM_HVw5Nr-30" value="&lt;font face=&quot;Lucida Console&quot;&gt;&lt;span style=&quot;font-size: 18px;&quot;&gt;doRecv&lt;/span&gt;&lt;/font&gt;" style="rounded=0;whiteSpace=wrap;html=1;" parent="1" vertex="1">
          <mxGeometry x="880" y="480" width="240" height="80" as="geometry" />
        </mxCell>
        <mxCell id="b_20STS_lAYRM_HVw5Nr-36" value="" style="edgeStyle=orthogonalEdgeStyle;rounded=0;orthogonalLoop=1;jettySize=auto;html=1;" parent="1" source="b_20STS_lAYRM_HVw5Nr-33" target="b_20STS_lAYRM_HVw5Nr-35" edge="1">
          <mxGeometry relative="1" as="geometry" />
        </mxCell>
        <mxCell id="b_20STS_lAYRM_HVw5Nr-33" value="&lt;font face=&quot;Lucida Console&quot;&gt;&lt;span style=&quot;font-size: 18px;&quot;&gt;doRsp&lt;/span&gt;&lt;/font&gt;" style="rounded=0;whiteSpace=wrap;html=1;" parent="1" vertex="1">
          <mxGeometry x="880" y="640" width="240" height="80" as="geometry" />
        </mxCell>
        <mxCell id="b_20STS_lAYRM_HVw5Nr-35" value="&lt;font face=&quot;Lucida Console&quot;&gt;&lt;span style=&quot;font-size: 18px;&quot;&gt;if msg is response&lt;/span&gt;&lt;/font&gt;&lt;div&gt;&lt;font face=&quot;Lucida Console&quot;&gt;&lt;span style=&quot;font-size: 18px;&quot;&gt;do rockCtx fiber&lt;/span&gt;&lt;/font&gt;&lt;/div&gt;" style="rounded=0;whiteSpace=wrap;html=1;" parent="1" vertex="1">
          <mxGeometry x="1200" y="640" width="240" height="80" as="geometry" />
        </mxCell>
        <mxCell id="FbWuHJWxQ1fCQQly8lGh-6" value="" style="edgeStyle=orthogonalEdgeStyle;rounded=0;orthogonalLoop=1;jettySize=auto;html=1;" parent="1" source="FbWuHJWxQ1fCQQly8lGh-1" target="FbWuHJWxQ1fCQQly8lGh-2" edge="1">
          <mxGeometry relative="1" as="geometry" />
        </mxCell>
        <mxCell id="LXZmz6eaG3HPmyScxbba-10" value="" style="edgeStyle=orthogonalEdgeStyle;rounded=0;orthogonalLoop=1;jettySize=auto;html=1;" parent="1" source="FbWuHJWxQ1fCQQly8lGh-1" target="LXZmz6eaG3HPmyScxbba-9" edge="1">
          <mxGeometry relative="1" as="geometry" />
        </mxCell>
        <mxCell id="FbWuHJWxQ1fCQQly8lGh-1" value="&lt;div style=&quot;color: rgb(59, 59, 59); background-color: rgb(255, 255, 255); font-family: Consolas, &amp;quot;Courier New&amp;quot;, monospace; line-height: 19px; white-space: pre;&quot;&gt;&lt;div style=&quot;line-height: 19px;&quot;&gt;&lt;span style=&quot;color: rgb(38, 127, 153);&quot;&gt;&lt;font style=&quot;font-size: 18px;&quot;&gt;IServiceDiscovery&lt;/font&gt;&lt;/span&gt;&lt;/div&gt;&lt;/div&gt;" style="rounded=0;whiteSpace=wrap;html=1;" parent="1" vertex="1">
          <mxGeometry x="80" y="1600" width="240" height="80" as="geometry" />
        </mxCell>
        <mxCell id="LXZmz6eaG3HPmyScxbba-2" value="" style="edgeStyle=orthogonalEdgeStyle;rounded=0;orthogonalLoop=1;jettySize=auto;html=1;" parent="1" source="FbWuHJWxQ1fCQQly8lGh-2" target="LXZmz6eaG3HPmyScxbba-1" edge="1">
          <mxGeometry relative="1" as="geometry" />
        </mxCell>
        <mxCell id="FbWuHJWxQ1fCQQly8lGh-2" value="&lt;div style=&quot;color: rgb(59, 59, 59); background-color: rgb(255, 255, 255); font-family: Consolas, &amp;quot;Courier New&amp;quot;, monospace; line-height: 19px; white-space: pre;&quot;&gt;&lt;span style=&quot;color: rgb(38, 127, 153);&quot;&gt;&lt;font style=&quot;font-size: 18px;&quot;&gt;ZKServiceDiscovery&lt;/font&gt;&lt;/span&gt;&lt;/div&gt;" style="rounded=0;whiteSpace=wrap;html=1;" parent="1" vertex="1">
          <mxGeometry x="80" y="1880" width="240" height="80" as="geometry" />
        </mxCell>
        <mxCell id="FbWuHJWxQ1fCQQly8lGh-5" value="" style="edgeStyle=orthogonalEdgeStyle;rounded=0;orthogonalLoop=1;jettySize=auto;html=1;" parent="1" source="FbWuHJWxQ1fCQQly8lGh-3" target="FbWuHJWxQ1fCQQly8lGh-1" edge="1">
          <mxGeometry relative="1" as="geometry" />
        </mxCell>
        <mxCell id="LXZmz6eaG3HPmyScxbba-4" value="" style="edgeStyle=orthogonalEdgeStyle;rounded=0;orthogonalLoop=1;jettySize=auto;html=1;" parent="1" source="FbWuHJWxQ1fCQQly8lGh-3" target="LXZmz6eaG3HPmyScxbba-3" edge="1">
          <mxGeometry relative="1" as="geometry" />
        </mxCell>
        <mxCell id="FbWuHJWxQ1fCQQly8lGh-3" value="&lt;div style=&quot;color: rgb(59, 59, 59); background-color: rgb(255, 255, 255); font-family: Consolas, &amp;quot;Courier New&amp;quot;, monospace; line-height: 19px; white-space: pre;&quot;&gt;&lt;div style=&quot;line-height: 19px;&quot;&gt;&lt;div style=&quot;line-height: 19px;&quot;&gt;&lt;span style=&quot;color: rgb(38, 127, 153);&quot;&gt;&lt;font style=&quot;font-size: 18px;&quot;&gt;ServiceItemInfo&lt;/font&gt;&lt;/span&gt;&lt;/div&gt;&lt;/div&gt;&lt;/div&gt;" style="rounded=0;whiteSpace=wrap;html=1;" parent="1" vertex="1">
          <mxGeometry x="80" y="1240" width="240" height="80" as="geometry" />
        </mxCell>
        <mxCell id="pS0YvzMVe67xT3mDCH28-2" value="" style="edgeStyle=orthogonalEdgeStyle;rounded=0;orthogonalLoop=1;jettySize=auto;html=1;" parent="1" source="FbWuHJWxQ1fCQQly8lGh-7" target="pS0YvzMVe67xT3mDCH28-1" edge="1">
          <mxGeometry relative="1" as="geometry" />
        </mxCell>
        <mxCell id="FbWuHJWxQ1fCQQly8lGh-7" value="&lt;div style=&quot;color: rgb(59, 59, 59); background-color: rgb(255, 255, 255); font-family: Consolas, &amp;quot;Courier New&amp;quot;, monospace; line-height: 19px; white-space: pre;&quot;&gt;&lt;div style=&quot;line-height: 19px;&quot;&gt;&lt;span style=&quot;color: rgb(38, 127, 153);&quot;&gt;&lt;font style=&quot;font-size: 18px;&quot;&gt;RockSDLoadBalance&lt;/font&gt;&lt;/span&gt;&lt;/div&gt;&lt;/div&gt;" style="rounded=0;whiteSpace=wrap;html=1;" parent="1" vertex="1">
          <mxGeometry x="280" y="2330" width="240" height="80" as="geometry" />
        </mxCell>
        <mxCell id="pS0YvzMVe67xT3mDCH28-6" value="" style="edgeStyle=orthogonalEdgeStyle;rounded=0;orthogonalLoop=1;jettySize=auto;html=1;" parent="1" source="Y9UezcKfLyh4hibmYz1g-1" target="pS0YvzMVe67xT3mDCH28-5" edge="1">
          <mxGeometry relative="1" as="geometry" />
        </mxCell>
        <mxCell id="msbiENJLlhLD6t8gdGTx-8" value="" style="edgeStyle=orthogonalEdgeStyle;rounded=0;orthogonalLoop=1;jettySize=auto;html=1;" edge="1" parent="1" source="Y9UezcKfLyh4hibmYz1g-1" target="msbiENJLlhLD6t8gdGTx-7">
          <mxGeometry relative="1" as="geometry" />
        </mxCell>
        <mxCell id="msbiENJLlhLD6t8gdGTx-11" value="" style="edgeStyle=orthogonalEdgeStyle;rounded=0;orthogonalLoop=1;jettySize=auto;html=1;entryX=0.5;entryY=0;entryDx=0;entryDy=0;" edge="1" parent="1" source="Y9UezcKfLyh4hibmYz1g-1" target="FbWuHJWxQ1fCQQly8lGh-7">
          <mxGeometry relative="1" as="geometry">
            <mxPoint x="400" y="2210" as="targetPoint" />
          </mxGeometry>
        </mxCell>
        <mxCell id="Y9UezcKfLyh4hibmYz1g-1" value="&lt;div style=&quot;color: rgb(59, 59, 59); background-color: rgb(255, 255, 255); font-family: Consolas, &amp;quot;Courier New&amp;quot;, monospace; line-height: 19px; white-space: pre;&quot;&gt;&lt;div style=&quot;line-height: 19px;&quot;&gt;&lt;div style=&quot;line-height: 19px;&quot;&gt;&lt;span style=&quot;color: rgb(38, 127, 153);&quot;&gt;&lt;font style=&quot;font-size: 18px;&quot;&gt;SDLoadBalance&lt;/font&gt;&lt;/span&gt;&lt;/div&gt;&lt;/div&gt;&lt;/div&gt;" style="rounded=0;whiteSpace=wrap;html=1;" parent="1" vertex="1">
          <mxGeometry x="280" y="2040" width="240" height="80" as="geometry" />
        </mxCell>
        <mxCell id="LXZmz6eaG3HPmyScxbba-12" value="" style="edgeStyle=orthogonalEdgeStyle;rounded=0;orthogonalLoop=1;jettySize=auto;html=1;" parent="1" source="LXZmz6eaG3HPmyScxbba-1" target="LXZmz6eaG3HPmyScxbba-11" edge="1">
          <mxGeometry relative="1" as="geometry" />
        </mxCell>
        <mxCell id="LXZmz6eaG3HPmyScxbba-1" value="&lt;div style=&quot;background-color: rgb(255, 255, 255); font-family: Consolas, &amp;quot;Courier New&amp;quot;, monospace; line-height: 19px; white-space: pre;&quot;&gt;&lt;div style=&quot;line-height: 19px;&quot;&gt;&lt;font color=&quot;#795e26&quot;&gt;&lt;span style=&quot;font-size: 18px;&quot;&gt;hosts&lt;/span&gt;&lt;/font&gt;&lt;/div&gt;&lt;div style=&quot;line-height: 19px;&quot;&gt;&lt;font color=&quot;#795e26&quot;&gt;&lt;span style=&quot;font-size: 18px;&quot;&gt;selfInfo&lt;/span&gt;&lt;/font&gt;&lt;/div&gt;&lt;div style=&quot;line-height: 19px;&quot;&gt;&lt;font color=&quot;#795e26&quot;&gt;&lt;span style=&quot;font-size: 18px;&quot;&gt;selfData&lt;/span&gt;&lt;/font&gt;&lt;/div&gt;&lt;div style=&quot;line-height: 19px;&quot;&gt;&lt;font color=&quot;#795e26&quot;&gt;&lt;span style=&quot;font-size: 18px;&quot;&gt;client&lt;/span&gt;&lt;/font&gt;&lt;/div&gt;&lt;div style=&quot;line-height: 19px;&quot;&gt;&lt;font color=&quot;#795e26&quot;&gt;&lt;span style=&quot;font-size: 18px;&quot;&gt;timer&lt;/span&gt;&lt;/font&gt;&lt;/div&gt;&lt;/div&gt;" style="rounded=0;whiteSpace=wrap;html=1;" parent="1" vertex="1">
          <mxGeometry x="400" y="1860" width="160" height="120" as="geometry" />
        </mxCell>
        <mxCell id="LXZmz6eaG3HPmyScxbba-8" value="" style="edgeStyle=orthogonalEdgeStyle;rounded=0;orthogonalLoop=1;jettySize=auto;html=1;" parent="1" source="LXZmz6eaG3HPmyScxbba-3" target="LXZmz6eaG3HPmyScxbba-7" edge="1">
          <mxGeometry relative="1" as="geometry" />
        </mxCell>
        <mxCell id="LXZmz6eaG3HPmyScxbba-3" value="&lt;div style=&quot;background-color: rgb(255, 255, 255); font-family: Consolas, &amp;quot;Courier New&amp;quot;, monospace; line-height: 19px; white-space: pre;&quot;&gt;&lt;div style=&quot;line-height: 19px;&quot;&gt;&lt;div style=&quot;line-height: 19px;&quot;&gt;&lt;font color=&quot;#267f99&quot;&gt;&lt;span style=&quot;font-size: 18px;&quot;&gt;Create&lt;/span&gt;&lt;/font&gt;&lt;/div&gt;&lt;/div&gt;&lt;/div&gt;" style="rounded=0;whiteSpace=wrap;html=1;" parent="1" vertex="1">
          <mxGeometry x="400" y="1240" width="240" height="80" as="geometry" />
        </mxCell>
        <mxCell id="LXZmz6eaG3HPmyScxbba-7" value="&lt;div style=&quot;background-color: rgb(255, 255, 255); font-family: Consolas, &amp;quot;Courier New&amp;quot;, monospace; line-height: 19px; white-space: pre;&quot;&gt;&lt;div style=&quot;line-height: 19px;&quot;&gt;&lt;div style=&quot;line-height: 19px;&quot;&gt;&lt;font color=&quot;#267f99&quot;&gt;&lt;span style=&quot;font-size: 18px;&quot;&gt;From ip_port get ip and port&lt;/span&gt;&lt;/font&gt;&lt;/div&gt;&lt;div style=&quot;line-height: 19px;&quot;&gt;&lt;font color=&quot;#267f99&quot;&gt;&lt;span style=&quot;font-size: 18px;&quot;&gt;set data&lt;/span&gt;&lt;/font&gt;&lt;/div&gt;&lt;/div&gt;&lt;/div&gt;" style="rounded=0;whiteSpace=wrap;html=1;" parent="1" vertex="1">
          <mxGeometry x="720" y="1240" width="310" height="80" as="geometry" />
        </mxCell>
        <mxCell id="LXZmz6eaG3HPmyScxbba-9" value="&lt;div style=&quot;background-color: rgb(255, 255, 255); font-family: Consolas, &amp;quot;Courier New&amp;quot;, monospace; line-height: 19px; white-space: pre;&quot;&gt;&lt;div style=&quot;line-height: 19px;&quot;&gt;&lt;font color=&quot;#267f99&quot;&gt;&lt;span style=&quot;font-size: 18px;&quot;&gt;拥有多个ServiceItemInfo&lt;/span&gt;&lt;/font&gt;&lt;/div&gt;&lt;div style=&quot;line-height: 19px;&quot;&gt;&lt;font color=&quot;#267f99&quot;&gt;&lt;span style=&quot;font-size: 18px;&quot;&gt;datas = &lt;/span&gt;&lt;/font&gt;&lt;span style=&quot;color: rgb(0, 128, 0); font-size: 14px;&quot;&gt;domain -&amp;gt; [service -&amp;gt; [id -&amp;gt; ServiceItemInfo] ]&lt;/span&gt;&lt;/div&gt;&lt;div style=&quot;line-height: 19px;&quot;&gt;&lt;font color=&quot;#267f99&quot;&gt;&lt;span style=&quot;font-size: 18px;&quot;&gt;registerInfos = &lt;/span&gt;&lt;/font&gt;&lt;span style=&quot;color: rgb(0, 128, 0); font-size: 14px;&quot;&gt;domain -&amp;gt; [service -&amp;gt; [ip_and_port -&amp;gt; data] ]&lt;/span&gt;&lt;/div&gt;&lt;div style=&quot;line-height: 19px;&quot;&gt;&lt;font color=&quot;#267f99&quot;&gt;&lt;span style=&quot;font-size: 18px;&quot;&gt;queryInfos = &lt;/span&gt;&lt;/font&gt;&lt;span style=&quot;color: rgb(0, 128, 0); font-size: 14px;&quot;&gt;domain -&amp;gt; [service]&lt;/span&gt;&lt;/div&gt;&lt;/div&gt;" style="rounded=0;whiteSpace=wrap;html=1;" parent="1" vertex="1">
          <mxGeometry x="380" y="1500" width="546" height="120" as="geometry" />
        </mxCell>
        <mxCell id="LXZmz6eaG3HPmyScxbba-16" value="" style="edgeStyle=orthogonalEdgeStyle;rounded=0;orthogonalLoop=1;jettySize=auto;html=1;" parent="1" source="LXZmz6eaG3HPmyScxbba-11" target="LXZmz6eaG3HPmyScxbba-15" edge="1">
          <mxGeometry relative="1" as="geometry" />
        </mxCell>
        <mxCell id="LXZmz6eaG3HPmyScxbba-11" value="&lt;div style=&quot;background-color: rgb(255, 255, 255); font-family: Consolas, &amp;quot;Courier New&amp;quot;, monospace; line-height: 19px; white-space: pre;&quot;&gt;&lt;div style=&quot;line-height: 19px;&quot;&gt;&lt;font color=&quot;#795e26&quot;&gt;&lt;span style=&quot;font-size: 18px;&quot;&gt;start&lt;/span&gt;&lt;/font&gt;&lt;/div&gt;&lt;/div&gt;" style="rounded=0;whiteSpace=wrap;html=1;" parent="1" vertex="1">
          <mxGeometry x="640" y="1860" width="200" height="120" as="geometry" />
        </mxCell>
        <mxCell id="msbiENJLlhLD6t8gdGTx-6" value="" style="edgeStyle=orthogonalEdgeStyle;rounded=0;orthogonalLoop=1;jettySize=auto;html=1;" edge="1" parent="1" source="LXZmz6eaG3HPmyScxbba-15" target="msbiENJLlhLD6t8gdGTx-5">
          <mxGeometry relative="1" as="geometry" />
        </mxCell>
        <mxCell id="LXZmz6eaG3HPmyScxbba-15" value="&lt;div style=&quot;background-color: rgb(255, 255, 255); font-family: Consolas, &amp;quot;Courier New&amp;quot;, monospace; line-height: 19px; white-space: pre;&quot;&gt;&lt;div style=&quot;line-height: 19px;&quot;&gt;&lt;font color=&quot;#795e26&quot;&gt;&lt;span style=&quot;font-size: 18px;&quot;&gt;get zkclient&lt;/span&gt;&lt;/font&gt;&lt;/div&gt;&lt;div style=&quot;line-height: 19px;&quot;&gt;&lt;font color=&quot;#795e26&quot;&gt;&lt;span style=&quot;font-size: 18px;&quot;&gt;do &lt;/span&gt;&lt;/font&gt;&lt;span style=&quot;color: rgb(121, 94, 38);&quot;&gt;&lt;font style=&quot;font-size: 18px;&quot;&gt;onZKConnect&lt;/font&gt;&lt;/span&gt;&lt;/div&gt;&lt;div style=&quot;line-height: 19px;&quot;&gt;&lt;div style=&quot;color: rgb(59, 59, 59); font-size: 14px; line-height: 19px;&quot;&gt;&lt;span style=&quot;color: #795e26;&quot;&gt;registerInfo queryInfo queryData&lt;/span&gt;&lt;/div&gt;&lt;/div&gt;&lt;/div&gt;" style="rounded=0;whiteSpace=wrap;html=1;" parent="1" vertex="1">
          <mxGeometry x="880" y="1830" width="280" height="180" as="geometry" />
        </mxCell>
        <mxCell id="pS0YvzMVe67xT3mDCH28-4" value="" style="edgeStyle=orthogonalEdgeStyle;rounded=0;orthogonalLoop=1;jettySize=auto;html=1;" parent="1" source="pS0YvzMVe67xT3mDCH28-1" target="pS0YvzMVe67xT3mDCH28-3" edge="1">
          <mxGeometry relative="1" as="geometry" />
        </mxCell>
        <mxCell id="pS0YvzMVe67xT3mDCH28-1" value="&lt;div style=&quot;color: rgb(59, 59, 59); background-color: rgb(255, 255, 255); font-family: Consolas, &amp;quot;Courier New&amp;quot;, monospace; line-height: 19px; white-space: pre;&quot;&gt;&lt;div style=&quot;line-height: 19px;&quot;&gt;&lt;span style=&quot;color: rgb(38, 127, 153);&quot;&gt;&lt;font style=&quot;font-size: 18px;&quot;&gt;Start&lt;/font&gt;&lt;/span&gt;&lt;/div&gt;&lt;/div&gt;" style="rounded=0;whiteSpace=wrap;html=1;" parent="1" vertex="1">
          <mxGeometry x="620" y="2330" width="240" height="80" as="geometry" />
        </mxCell>
        <mxCell id="pS0YvzMVe67xT3mDCH28-7" value="" style="edgeStyle=orthogonalEdgeStyle;rounded=0;orthogonalLoop=1;jettySize=auto;html=1;" parent="1" source="pS0YvzMVe67xT3mDCH28-3" target="pS0YvzMVe67xT3mDCH28-5" edge="1">
          <mxGeometry relative="1" as="geometry" />
        </mxCell>
        <mxCell id="msbiENJLlhLD6t8gdGTx-2" value="" style="edgeStyle=orthogonalEdgeStyle;rounded=0;orthogonalLoop=1;jettySize=auto;html=1;" edge="1" parent="1" source="pS0YvzMVe67xT3mDCH28-3" target="msbiENJLlhLD6t8gdGTx-1">
          <mxGeometry relative="1" as="geometry" />
        </mxCell>
        <mxCell id="pS0YvzMVe67xT3mDCH28-3" value="&lt;div style=&quot;background-color: rgb(255, 255, 255); font-family: Consolas, &amp;quot;Courier New&amp;quot;, monospace; line-height: 19px; white-space: pre;&quot;&gt;&lt;div style=&quot;line-height: 19px;&quot;&gt;&lt;span style=&quot;color: rgb(38, 127, 153); font-size: 18px;&quot;&gt;initConf rock_service&lt;/span&gt;&lt;/div&gt;&lt;div style=&quot;line-height: 19px;&quot;&gt;&lt;span style=&quot;color: rgb(38, 127, 153); font-size: 18px;&quot;&gt;set ZKSD callback servivceChange&lt;/span&gt;&lt;/div&gt;&lt;/div&gt;" style="rounded=0;whiteSpace=wrap;html=1;" parent="1" vertex="1">
          <mxGeometry x="575" y="2190" width="330" height="80" as="geometry" />
        </mxCell>
        <mxCell id="msbiENJLlhLD6t8gdGTx-3" style="edgeStyle=orthogonalEdgeStyle;rounded=0;orthogonalLoop=1;jettySize=auto;html=1;exitX=0.5;exitY=0;exitDx=0;exitDy=0;entryX=0.5;entryY=1;entryDx=0;entryDy=0;" edge="1" parent="1" source="pS0YvzMVe67xT3mDCH28-5" target="LXZmz6eaG3HPmyScxbba-11">
          <mxGeometry relative="1" as="geometry" />
        </mxCell>
        <mxCell id="pS0YvzMVe67xT3mDCH28-5" value="&lt;div style=&quot;color: rgb(59, 59, 59); background-color: rgb(255, 255, 255); font-family: Consolas, &amp;quot;Courier New&amp;quot;, monospace; line-height: 19px; white-space: pre;&quot;&gt;&lt;div style=&quot;line-height: 19px;&quot;&gt;&lt;div style=&quot;line-height: 19px;&quot;&gt;&lt;span style=&quot;color: rgb(38, 127, 153);&quot;&gt;&lt;font style=&quot;font-size: 18px;&quot;&gt;start&lt;/font&gt;&lt;/span&gt;&lt;/div&gt;&lt;/div&gt;&lt;/div&gt;" style="rounded=0;whiteSpace=wrap;html=1;" parent="1" vertex="1">
          <mxGeometry x="640" y="2040" width="200" height="80" as="geometry" />
        </mxCell>
        <mxCell id="msbiENJLlhLD6t8gdGTx-1" value="&lt;div style=&quot;background-color: rgb(255, 255, 255); font-family: Consolas, &amp;quot;Courier New&amp;quot;, monospace; line-height: 19px; white-space: pre;&quot;&gt;&lt;div style=&quot;line-height: 19px;&quot;&gt;&lt;font color=&quot;#267f99&quot;&gt;&lt;span style=&quot;font-size: 18px;&quot;&gt;cb used in getChild in query data and ZKChild&lt;/span&gt;&lt;/font&gt;&lt;/div&gt;&lt;/div&gt;" style="rounded=0;whiteSpace=wrap;html=1;" vertex="1" parent="1">
          <mxGeometry x="960" y="2190" width="480" height="80" as="geometry" />
        </mxCell>
        <mxCell id="msbiENJLlhLD6t8gdGTx-5" value="&lt;div style=&quot;background-color: rgb(255, 255, 255); font-family: Consolas, &amp;quot;Courier New&amp;quot;, monospace; line-height: 19px; white-space: pre;&quot;&gt;&lt;div style=&quot;line-height: 19px;&quot;&gt;&lt;font color=&quot;#795e26&quot;&gt;&lt;span style=&quot;font-size: 18px;&quot;&gt;create provider&lt;/span&gt;&lt;/font&gt;&lt;/div&gt;&lt;div style=&quot;line-height: 19px;&quot;&gt;&lt;font color=&quot;#795e26&quot;&gt;&lt;span style=&quot;font-size: 18px;&quot;&gt;create consumer&lt;/span&gt;&lt;/font&gt;&lt;/div&gt;&lt;div style=&quot;line-height: 19px;&quot;&gt;&lt;font color=&quot;#795e26&quot;&gt;&lt;span style=&quot;font-size: 18px;&quot;&gt;getChild in queryData&lt;/span&gt;&lt;/font&gt;&lt;/div&gt;&lt;/div&gt;" style="rounded=0;whiteSpace=wrap;html=1;" vertex="1" parent="1">
          <mxGeometry x="1240" y="1830" width="280" height="180" as="geometry" />
        </mxCell>
        <mxCell id="msbiENJLlhLD6t8gdGTx-15" value="" style="edgeStyle=orthogonalEdgeStyle;rounded=0;orthogonalLoop=1;jettySize=auto;html=1;" edge="1" parent="1" source="msbiENJLlhLD6t8gdGTx-7" target="msbiENJLlhLD6t8gdGTx-14">
          <mxGeometry relative="1" as="geometry" />
        </mxCell>
        <mxCell id="msbiENJLlhLD6t8gdGTx-7" value="&lt;div style=&quot;background-color: rgb(255, 255, 255); font-family: Consolas, &amp;quot;Courier New&amp;quot;, monospace; line-height: 19px; white-space: pre;&quot;&gt;&lt;div style=&quot;line-height: 19px;&quot;&gt;&lt;div style=&quot;line-height: 19px;&quot;&gt;&lt;font color=&quot;#267f99&quot;&gt;&lt;span style=&quot;font-size: 18px;&quot;&gt;has ZKSD&lt;/span&gt;&lt;/font&gt;&lt;/div&gt;&lt;div style=&quot;line-height: 19px;&quot;&gt;&lt;font color=&quot;#267f99&quot;&gt;&lt;span style=&quot;font-size: 18px;&quot;&gt;datas = &lt;/span&gt;&lt;/font&gt;&lt;span style=&quot;color: rgb(0, 128, 0); font-size: 14px;&quot;&gt;//domain -&amp;gt; [ service -&amp;gt; [ LoadBalance ] ]&lt;/span&gt;&lt;/div&gt;&lt;div style=&quot;line-height: 19px;&quot;&gt;&lt;span style=&quot;color: rgb(0, 128, 0); font-size: 14px;&quot;&gt;type &lt;/span&gt;&lt;/div&gt;&lt;/div&gt;&lt;/div&gt;" style="rounded=0;whiteSpace=wrap;html=1;" vertex="1" parent="1">
          <mxGeometry x="-340" y="2040" width="540" height="80" as="geometry" />
        </mxCell>
        <mxCell id="msbiENJLlhLD6t8gdGTx-14" value="&lt;div style=&quot;background-color: rgb(255, 255, 255); font-family: Consolas, &amp;quot;Courier New&amp;quot;, monospace; line-height: 19px; white-space: pre;&quot;&gt;&lt;div style=&quot;line-height: 19px;&quot;&gt;&lt;span style=&quot;color: rgb(38, 127, 153); font-size: 18px;&quot;&gt;callback servivceChange&lt;/span&gt;&lt;br&gt;&lt;/div&gt;&lt;div style=&quot;line-height: 19px;&quot;&gt;&lt;span style=&quot;color: rgb(38, 127, 153); font-size: 18px;&quot;&gt;update datas&lt;/span&gt;&lt;/div&gt;&lt;div style=&quot;line-height: 19px;&quot;&gt;&lt;font color=&quot;#267f99&quot;&gt;&lt;span style=&quot;font-size: 18px;&quot;&gt;service &amp;lt;--&amp;gt; loaditem&lt;/span&gt;&lt;/font&gt;&lt;/div&gt;&lt;/div&gt;" style="rounded=0;whiteSpace=wrap;html=1;" vertex="1" parent="1">
          <mxGeometry x="-235" y="2210" width="330" height="80" as="geometry" />
        </mxCell>
      </root>
    </mxGraphModel>
  </diagram>
</mxfile>
